<?xml version="1.0" encoding="UTF-8" standalone="no"?>
<!DOCTYPE svg PUBLIC "-//W3C//DTD SVG 1.1//EN"
 "http://www.w3.org/Graphics/SVG/1.1/DTD/svg11.dtd">
<!-- Generated by graphviz version 2.43.0 (0)
 -->
<!-- Title: %3 Pages: 1 -->
<svg width="191pt" height="168pt"
 viewBox="0.00 0.00 191.24 167.71" xmlns="http://www.w3.org/2000/svg" xmlns:xlink="http://www.w3.org/1999/xlink">
<g id="graph0" class="graph" transform="scale(1 1) rotate(0) translate(4 163.71)">
<title>%3</title>
<polygon fill="white" stroke="transparent" points="-4,4 -4,-163.71 187.24,-163.71 187.24,4 -4,4"/>
<!-- &#45;1 -->
<g id="node1" class="node">
<title>&#45;1</title>
<polygon fill="lightgray" stroke="black" points="23.75,-94.35 -0.25,-94.35 -0.25,-77.35 23.75,-77.35 23.75,-94.35"/>
<text text-anchor="middle" x="11.75" y="-83.15" font-family="Times,serif" font-size="9.00">&#45;1</text>
</g>
<!-- 0 -->
<g id="node5" class="node">
<title>0</title>
<ellipse fill="lightblue" stroke="black" cx="73.75" cy="-14.5" rx="14.49" ry="14.49"/>
<text text-anchor="middle" x="73.75" y="-11.8" font-family="Times,serif" font-size="9.00">0</text>
</g>
<!-- &#45;1&#45;&gt;0 -->
<g id="edge7" class="edge">
<title>&#45;1&#45;&gt;0</title>
<path fill="none" stroke="red" stroke-width="0.11" d="M18.62,-77.16C27.9,-66.79 44.72,-47.97 57.35,-33.84"/>
<polygon fill="red" stroke="red" stroke-width="0.11" points="60.16,-35.95 64.21,-26.16 54.94,-31.28 60.16,-35.95"/>
</g>
<!-- &#45;2 -->
<g id="node2" class="node">
<title>&#45;2</title>
<polygon fill="lightgray" stroke="black" points="180.75,-159.71 156.75,-159.71 156.75,-142.71 180.75,-142.71 180.75,-159.71"/>
<text text-anchor="middle" x="168.75" y="-148.51" font-family="Times,serif" font-size="9.00">&#45;2</text>
</g>
<!-- 1 -->
<g id="node6" class="node">
<title>1</title>
<ellipse fill="lightblue" stroke="black" cx="168.75" cy="-14.5" rx="14.49" ry="14.49"/>
<text text-anchor="middle" x="168.75" y="-11.8" font-family="Times,serif" font-size="9.00">1</text>
</g>
<!-- &#45;2&#45;&gt;1 -->
<g id="edge6" class="edge">
<title>&#45;2&#45;&gt;1</title>
<path fill="none" stroke="green" stroke-width="0.26" d="M170.13,-142.54C171.62,-133.88 173.88,-119.34 174.75,-106.71 176.02,-88.21 175.87,-83.5 174.75,-64.99 174.23,-56.46 173.22,-47.15 172.18,-38.92"/>
<polygon fill="green" stroke="green" stroke-width="0.26" points="175.63,-38.34 170.82,-28.9 168.69,-39.28 175.63,-38.34"/>
</g>
<!-- 178 -->
<g id="node7" class="node">
<title>178</title>
<ellipse fill="white" stroke="black" cx="144.75" cy="-85.85" rx="20.72" ry="20.72"/>
<text text-anchor="middle" x="144.75" y="-83.15" font-family="Times,serif" font-size="9.00">178</text>
</g>
<!-- &#45;2&#45;&gt;178 -->
<g id="edge5" class="edge">
<title>&#45;2&#45;&gt;178</title>
<path fill="none" stroke="green" stroke-width="0.16" d="M165.81,-142.44C163.19,-135.53 159.19,-124.99 155.39,-114.94"/>
<polygon fill="green" stroke="green" stroke-width="0.16" points="158.66,-113.69 151.84,-105.58 152.11,-116.17 158.66,-113.69"/>
</g>
<!-- &#45;3 -->
<g id="node3" class="node">
<title>&#45;3</title>
<polygon fill="lightgray" stroke="black" points="64.75,-94.35 40.75,-94.35 40.75,-77.35 64.75,-77.35 64.75,-94.35"/>
<text text-anchor="middle" x="52.75" y="-83.15" font-family="Times,serif" font-size="9.00">&#45;3</text>
</g>
<!-- &#45;3&#45;&gt;0 -->
<g id="edge1" class="edge">
<title>&#45;3&#45;&gt;0</title>
<path fill="none" stroke="red" stroke-width="0.5" d="M55.08,-77.16C57.9,-67.83 62.79,-51.68 66.86,-38.25"/>
<polygon fill="red" stroke="red" stroke-width="0.5" points="70.21,-39.25 69.76,-28.66 63.51,-37.22 70.21,-39.25"/>
</g>
<!-- &#45;4 -->
<g id="node4" class="node">
<title>&#45;4</title>
<polygon fill="lightgray" stroke="black" points="105.75,-94.35 81.75,-94.35 81.75,-77.35 105.75,-77.35 105.75,-94.35"/>
<text text-anchor="middle" x="93.75" y="-83.15" font-family="Times,serif" font-size="9.00">&#45;4</text>
</g>
<!-- &#45;4&#45;&gt;0 -->
<g id="edge2" class="edge">
<title>&#45;4&#45;&gt;0</title>
<path fill="none" stroke="red" stroke-width="0.45" d="M91.53,-77.16C88.87,-67.92 84.27,-52 80.42,-38.64"/>
<polygon fill="red" stroke="red" stroke-width="0.45" points="83.68,-37.3 77.54,-28.66 76.95,-39.24 83.68,-37.3"/>
</g>
<!-- 178&#45;&gt;0 -->
<g id="edge4" class="edge">
<title>178&#45;&gt;0</title>
<path fill="none" stroke="red" stroke-width="0.56" d="M130.04,-70.48C118.71,-59.41 103.02,-44.09 91.08,-32.43"/>
<polygon fill="red" stroke="red" stroke-width="0.56" points="93.46,-29.86 83.86,-25.38 88.57,-34.87 93.46,-29.86"/>
</g>
<!-- 178&#45;&gt;1 -->
<g id="edge3" class="edge">
<title>178&#45;&gt;1</title>
<path fill="none" stroke="red" stroke-width="0.26" d="M151.31,-65.9C154.29,-57.27 157.85,-47 160.97,-37.99"/>
<polygon fill="red" stroke="red" stroke-width="0.26" points="164.29,-39.09 164.25,-28.5 157.67,-36.81 164.29,-39.09"/>
</g>
</g>
</svg>
