<?xml version="1.0" encoding="UTF-8" standalone="no"?>
<!DOCTYPE svg PUBLIC "-//W3C//DTD SVG 1.1//EN"
 "http://www.w3.org/Graphics/SVG/1.1/DTD/svg11.dtd">
<!-- Generated by graphviz version 2.43.0 (0)
 -->
<!-- Title: %3 Pages: 1 -->
<svg width="604pt" height="245pt"
 viewBox="0.00 0.00 603.73 245.43" xmlns="http://www.w3.org/2000/svg" xmlns:xlink="http://www.w3.org/1999/xlink">
<g id="graph0" class="graph" transform="scale(1 1) rotate(0) translate(4 241.43)">
<title>%3</title>
<polygon fill="white" stroke="transparent" points="-4,4 -4,-241.43 599.73,-241.43 599.73,4 -4,4"/>
<!-- &#45;1 -->
<g id="node1" class="node">
<title>&#45;1</title>
<polygon fill="lightgray" stroke="black" points="498.89,-172.07 474.88,-172.07 474.88,-155.07 498.89,-155.07 498.89,-172.07"/>
<text text-anchor="middle" x="486.88" y="-160.87" font-family="Times,serif" font-size="9.00">&#45;1</text>
</g>
<!-- 0 -->
<g id="node9" class="node">
<title>0</title>
<ellipse fill="lightblue" stroke="black" cx="177.88" cy="-85.85" rx="14.49" ry="14.49"/>
<text text-anchor="middle" x="177.88" y="-83.15" font-family="Times,serif" font-size="9.00">0</text>
</g>
<!-- &#45;1&#45;&gt;0 -->
<g id="edge1" class="edge">
<title>&#45;1&#45;&gt;0</title>
<path fill="none" stroke="green" stroke-width="0.15" d="M480.67,-154.84C476.85,-150.61 471.6,-145.65 465.88,-142.71 419.61,-118.94 263.79,-97.54 202.73,-89.86"/>
<polygon fill="green" stroke="green" stroke-width="0.15" points="202.83,-86.34 192.48,-88.59 201.97,-93.29 202.83,-86.34"/>
</g>
<!-- 1 -->
<g id="node10" class="node">
<title>1</title>
<ellipse fill="lightblue" stroke="black" cx="495.88" cy="-85.85" rx="14.49" ry="14.49"/>
<text text-anchor="middle" x="495.88" y="-83.15" font-family="Times,serif" font-size="9.00">1</text>
</g>
<!-- &#45;1&#45;&gt;1 -->
<g id="edge2" class="edge">
<title>&#45;1&#45;&gt;1</title>
<path fill="none" stroke="green" stroke-width="1.17" d="M487.78,-155.03C489,-144.8 491.23,-126.03 493.04,-110.78"/>
<polygon fill="green" stroke="green" stroke-width="1.17" points="496.56,-110.8 494.27,-100.46 489.61,-109.98 496.56,-110.8"/>
</g>
<!-- 3 -->
<g id="node12" class="node">
<title>3</title>
<ellipse fill="lightblue" stroke="black" cx="367.88" cy="-85.85" rx="14.49" ry="14.49"/>
<text text-anchor="middle" x="367.88" y="-83.15" font-family="Times,serif" font-size="9.00">3</text>
</g>
<!-- &#45;1&#45;&gt;3 -->
<g id="edge3" class="edge">
<title>&#45;1&#45;&gt;3</title>
<path fill="none" stroke="green" stroke-width="0.35" d="M479.5,-154.75C475.64,-150.88 470.72,-146.3 465.88,-142.71 441.41,-124.57 410.5,-107.85 390,-97.53"/>
<polygon fill="green" stroke="green" stroke-width="0.35" points="391.37,-94.3 380.86,-92.99 388.26,-100.57 391.37,-94.3"/>
</g>
<!-- &#45;2 -->
<g id="node2" class="node">
<title>&#45;2</title>
<polygon fill="lightgray" stroke="black" points="38.89,-172.07 14.88,-172.07 14.88,-155.07 38.89,-155.07 38.89,-172.07"/>
<text text-anchor="middle" x="26.88" y="-160.87" font-family="Times,serif" font-size="9.00">&#45;2</text>
</g>
<!-- &#45;2&#45;&gt;0 -->
<g id="edge4" class="edge">
<title>&#45;2&#45;&gt;0</title>
<path fill="none" stroke="red" stroke-width="0.25" d="M33.73,-154.9C37.59,-150.9 42.68,-146.13 47.88,-142.71 50.29,-141.13 118.82,-111.94 155.39,-96.4"/>
<polygon fill="red" stroke="red" stroke-width="0.25" points="156.94,-99.54 164.77,-92.41 154.2,-93.1 156.94,-99.54"/>
</g>
<!-- 2 -->
<g id="node11" class="node">
<title>2</title>
<ellipse fill="lightblue" stroke="black" cx="174.88" cy="-14.5" rx="14.49" ry="14.49"/>
<text text-anchor="middle" x="174.88" y="-11.8" font-family="Times,serif" font-size="9.00">2</text>
</g>
<!-- &#45;2&#45;&gt;2 -->
<g id="edge34" class="edge">
<title>&#45;2&#45;&gt;2</title>
<path fill="none" stroke="red" stroke-width="0.46" d="M28.42,-154.96C32.41,-137.06 44.61,-91.81 70.88,-64.99 93.21,-42.2 128.11,-28.59 151.23,-21.57"/>
<polygon fill="red" stroke="red" stroke-width="0.46" points="152.28,-24.91 160.94,-18.8 150.36,-18.18 152.28,-24.91"/>
</g>
<!-- &#45;2&#45;&gt;3 -->
<g id="edge5" class="edge">
<title>&#45;2&#45;&gt;3</title>
<path fill="none" stroke="green" stroke-width="0.46" d="M33.08,-154.8C36.89,-150.56 42.14,-145.59 47.88,-142.71 100.06,-116.53 277.12,-96.16 342.96,-89.33"/>
<polygon fill="green" stroke="green" stroke-width="0.46" points="343.63,-92.78 353.22,-88.28 342.92,-85.81 343.63,-92.78"/>
</g>
<!-- 155 -->
<g id="node15" class="node">
<title>155</title>
<ellipse fill="white" stroke="black" cx="100.88" cy="-85.85" rx="20.72" ry="20.72"/>
<text text-anchor="middle" x="100.88" y="-83.15" font-family="Times,serif" font-size="9.00">155</text>
</g>
<!-- &#45;2&#45;&gt;155 -->
<g id="edge33" class="edge">
<title>&#45;2&#45;&gt;155</title>
<path fill="none" stroke="green" stroke-width="0.18" d="M34.25,-155.03C44.74,-144.3 64.41,-124.17 79.67,-108.56"/>
<polygon fill="green" stroke="green" stroke-width="0.18" points="82.26,-110.91 86.75,-101.31 77.26,-106.02 82.26,-110.91"/>
</g>
<!-- &#45;3 -->
<g id="node3" class="node">
<title>&#45;3</title>
<polygon fill="lightgray" stroke="black" points="422.89,-237.43 398.88,-237.43 398.88,-220.43 422.89,-220.43 422.89,-237.43"/>
<text text-anchor="middle" x="410.88" y="-226.23" font-family="Times,serif" font-size="9.00">&#45;3</text>
</g>
<!-- &#45;3&#45;&gt;1 -->
<g id="edge6" class="edge">
<title>&#45;3&#45;&gt;1</title>
<path fill="none" stroke="green" stroke-width="0.71" d="M422.68,-226.88C458.87,-223.39 567.14,-210.89 587.88,-184.43 599.32,-169.84 596.98,-158.87 587.88,-142.71 573.33,-116.84 541.41,-101.57 519.29,-93.7"/>
<polygon fill="green" stroke="green" stroke-width="0.71" points="520.21,-90.32 509.62,-90.51 518.02,-96.97 520.21,-90.32"/>
</g>
<!-- &#45;3&#45;&gt;3 -->
<g id="edge7" class="edge">
<title>&#45;3&#45;&gt;3</title>
<path fill="none" stroke="red" stroke-width="0.74" stroke-dasharray="1,5" d="M408.57,-220.34C402.3,-199.78 384.79,-142.31 374.9,-109.88"/>
<polygon fill="red" stroke="red" stroke-width="0.74" points="378.13,-108.48 371.87,-99.93 371.44,-110.52 378.13,-108.48"/>
</g>
<!-- 218 -->
<g id="node14" class="node">
<title>218</title>
<ellipse fill="white" stroke="black" cx="77.88" cy="-163.57" rx="20.72" ry="20.72"/>
<text text-anchor="middle" x="77.88" y="-160.87" font-family="Times,serif" font-size="9.00">218</text>
</g>
<!-- &#45;3&#45;&gt;218 -->
<g id="edge26" class="edge">
<title>&#45;3&#45;&gt;218</title>
<path fill="none" stroke="red" stroke-width="0.16" d="M398.9,-226.49C361.31,-221.86 242.49,-206.38 145.88,-184.43 133.17,-181.54 119.34,-177.64 107.48,-174.06"/>
<polygon fill="red" stroke="red" stroke-width="0.16" points="108.24,-170.63 97.65,-171.03 106.18,-177.32 108.24,-170.63"/>
</g>
<!-- 351 -->
<g id="node16" class="node">
<title>351</title>
<ellipse fill="white" stroke="black" cx="435.88" cy="-163.57" rx="20.72" ry="20.72"/>
<text text-anchor="middle" x="435.88" y="-160.87" font-family="Times,serif" font-size="9.00">351</text>
</g>
<!-- &#45;3&#45;&gt;351 -->
<g id="edge31" class="edge">
<title>&#45;3&#45;&gt;351</title>
<path fill="none" stroke="red" stroke-width="0.18" d="M413.95,-220.16C416.68,-213.25 420.83,-202.71 424.8,-192.66"/>
<polygon fill="red" stroke="red" stroke-width="0.18" points="428.08,-193.89 428.49,-183.3 421.57,-191.32 428.08,-193.89"/>
</g>
<!-- &#45;4 -->
<g id="node4" class="node">
<title>&#45;4</title>
<polygon fill="lightgray" stroke="black" points="279.89,-172.07 255.88,-172.07 255.88,-155.07 279.89,-155.07 279.89,-172.07"/>
<text text-anchor="middle" x="267.88" y="-160.87" font-family="Times,serif" font-size="9.00">&#45;4</text>
</g>
<!-- &#45;4&#45;&gt;0 -->
<g id="edge8" class="edge">
<title>&#45;4&#45;&gt;0</title>
<path fill="none" stroke="green" stroke-width="0.56" stroke-dasharray="1,5" d="M260.66,-155.02C256.94,-151.22 252.27,-146.62 247.88,-142.71 231.35,-127.98 211.54,-112.35 197.22,-101.38"/>
<polygon fill="green" stroke="green" stroke-width="0.56" points="199.18,-98.47 189.1,-95.2 194.94,-104.04 199.18,-98.47"/>
</g>
<!-- &#45;4&#45;&gt;2 -->
<g id="edge9" class="edge">
<title>&#45;4&#45;&gt;2</title>
<path fill="none" stroke="red" stroke-width="1.41" d="M265.28,-155.04C259.21,-138.07 243.03,-95.91 221.88,-64.99 213.62,-52.92 202.4,-40.98 192.99,-31.86"/>
<polygon fill="red" stroke="red" stroke-width="1.41" points="195.3,-29.22 185.62,-24.91 190.5,-34.31 195.3,-29.22"/>
</g>
<!-- &#45;4&#45;&gt;3 -->
<g id="edge10" class="edge">
<title>&#45;4&#45;&gt;3</title>
<path fill="none" stroke="green" stroke-width="0.48" d="M275,-154.9C278.7,-151.07 283.38,-146.47 287.88,-142.71 307.01,-126.74 330.58,-110.67 347.16,-99.9"/>
<polygon fill="green" stroke="green" stroke-width="0.48" points="349.51,-102.55 356.03,-94.21 345.73,-96.66 349.51,-102.55"/>
</g>
<!-- &#45;5 -->
<g id="node5" class="node">
<title>&#45;5</title>
<polygon fill="lightgray" stroke="black" points="238.89,-172.07 214.88,-172.07 214.88,-155.07 238.89,-155.07 238.89,-172.07"/>
<text text-anchor="middle" x="226.88" y="-160.87" font-family="Times,serif" font-size="9.00">&#45;5</text>
</g>
<!-- &#45;5&#45;&gt;0 -->
<g id="edge11" class="edge">
<title>&#45;5&#45;&gt;0</title>
<path fill="none" stroke="green" stroke-width="0.21" d="M222.01,-155.03C214.84,-143.96 201.22,-122.91 191,-107.12"/>
<polygon fill="green" stroke="green" stroke-width="0.21" points="193.82,-105.03 185.45,-98.54 187.94,-108.84 193.82,-105.03"/>
</g>
<!-- &#45;5&#45;&gt;1 -->
<g id="edge12" class="edge">
<title>&#45;5&#45;&gt;1</title>
<path fill="none" stroke="red" stroke-width="0.83" d="M232.76,-154.9C236.39,-150.69 241.39,-145.72 246.88,-142.71 266.73,-131.84 413.46,-102.75 471.93,-91.44"/>
<polygon fill="red" stroke="red" stroke-width="0.83" points="472.62,-94.87 481.77,-89.54 471.29,-88 472.62,-94.87"/>
</g>
<!-- &#45;5&#45;&gt;2 -->
<g id="edge13" class="edge">
<title>&#45;5&#45;&gt;2</title>
<path fill="none" stroke="red" stroke-width="0.51" stroke-dasharray="1,5" d="M225.48,-155.05C222.24,-138.43 213.57,-97.49 200.88,-64.99 197.09,-55.27 191.89,-44.98 187.15,-36.32"/>
<polygon fill="red" stroke="red" stroke-width="0.51" points="190.04,-34.33 182.07,-27.34 183.95,-37.77 190.04,-34.33"/>
</g>
<!-- &#45;5&#45;&gt;3 -->
<g id="edge14" class="edge">
<title>&#45;5&#45;&gt;3</title>
<path fill="none" stroke="green" stroke-width="0.57" d="M233.38,-154.94C237.05,-150.94 241.9,-146.17 246.88,-142.71 278.28,-120.9 319.56,-103.97 344.88,-94.71"/>
<polygon fill="green" stroke="green" stroke-width="0.57" points="346.12,-97.98 354.37,-91.33 343.77,-91.39 346.12,-97.98"/>
</g>
<!-- &#45;5&#45;&gt;155 -->
<g id="edge24" class="edge">
<title>&#45;5&#45;&gt;155</title>
<path fill="none" stroke="red" stroke-width="0.61" d="M219.54,-154.69C215.69,-150.81 210.77,-146.23 205.88,-142.71 181.6,-125.26 151.19,-109.68 129.35,-99.43"/>
<polygon fill="red" stroke="red" stroke-width="0.61" points="130.53,-96.12 119.98,-95.11 127.6,-102.48 130.53,-96.12"/>
</g>
<!-- &#45;6 -->
<g id="node6" class="node">
<title>&#45;6</title>
<polygon fill="lightgray" stroke="black" points="320.89,-172.07 296.88,-172.07 296.88,-155.07 320.89,-155.07 320.89,-172.07"/>
<text text-anchor="middle" x="308.88" y="-160.87" font-family="Times,serif" font-size="9.00">&#45;6</text>
</g>
<!-- &#45;6&#45;&gt;0 -->
<g id="edge15" class="edge">
<title>&#45;6&#45;&gt;0</title>
<path fill="none" stroke="red" stroke-width="0.64" stroke-dasharray="1,5" d="M302.34,-155C298.65,-151.03 293.81,-146.26 288.88,-142.71 260.67,-122.4 223.99,-105.52 200.68,-95.81"/>
<polygon fill="red" stroke="red" stroke-width="0.64" points="201.87,-92.51 191.29,-91.98 199.23,-98.99 201.87,-92.51"/>
</g>
<!-- &#45;6&#45;&gt;1 -->
<g id="edge16" class="edge">
<title>&#45;6&#45;&gt;1</title>
<path fill="none" stroke="red" stroke-width="1.09" d="M320.86,-157.72C351.57,-145.29 433.43,-112.14 473.36,-95.97"/>
<polygon fill="red" stroke="red" stroke-width="1.09" points="474.81,-99.16 482.77,-92.16 472.19,-92.67 474.81,-99.16"/>
</g>
<!-- &#45;7 -->
<g id="node7" class="node">
<title>&#45;7</title>
<polygon fill="lightgray" stroke="black" points="138.89,-237.43 114.88,-237.43 114.88,-220.43 138.89,-220.43 138.89,-237.43"/>
<text text-anchor="middle" x="126.88" y="-226.23" font-family="Times,serif" font-size="9.00">&#45;7</text>
</g>
<!-- &#45;7&#45;&gt;0 -->
<g id="edge17" class="edge">
<title>&#45;7&#45;&gt;0</title>
<path fill="none" stroke="red" stroke-width="0.66" d="M127.82,-220.18C129.82,-204.93 135.25,-170.13 145.88,-142.71 150.71,-130.26 158,-117.27 164.4,-106.95"/>
<polygon fill="red" stroke="red" stroke-width="0.66" points="167.48,-108.63 169.93,-98.32 161.59,-104.85 167.48,-108.63"/>
</g>
<!-- &#45;7&#45;&gt;1 -->
<g id="edge18" class="edge">
<title>&#45;7&#45;&gt;1</title>
<path fill="none" stroke="green" stroke-width="0.15" d="M138.65,-227.5C200.14,-225.13 482.62,-212.74 507.88,-184.43 526.41,-163.67 516.47,-129.77 506.81,-107.9"/>
<polygon fill="green" stroke="green" stroke-width="0.15" points="509.94,-106.32 502.5,-98.78 503.61,-109.32 509.94,-106.32"/>
</g>
<!-- &#45;7&#45;&gt;2 -->
<g id="edge19" class="edge">
<title>&#45;7&#45;&gt;2</title>
<path fill="none" stroke="red" stroke-width="0.18" d="M114.98,-227.81C89.79,-226.84 31.31,-220.59 5.88,-184.43 -4.78,-169.26 1.99,-160.84 5.88,-142.71 13.84,-105.67 13.18,-90.83 40.88,-64.99 71.75,-36.19 120.83,-23.8 150.24,-18.74"/>
<polygon fill="red" stroke="red" stroke-width="0.18" points="151.13,-22.14 160.47,-17.14 150.05,-15.23 151.13,-22.14"/>
</g>
<!-- &#45;7&#45;&gt;3 -->
<g id="edge20" class="edge">
<title>&#45;7&#45;&gt;3</title>
<path fill="none" stroke="red" stroke-width="0.27" d="M138.84,-226.85C177.82,-223.09 300.45,-209.49 329.88,-184.43 351.77,-165.8 361.12,-132.95 365.07,-110.56"/>
<polygon fill="red" stroke="red" stroke-width="0.27" points="368.55,-110.93 366.6,-100.52 361.63,-109.88 368.55,-110.93"/>
</g>
<!-- &#45;7&#45;&gt;218 -->
<g id="edge28" class="edge">
<title>&#45;7&#45;&gt;218</title>
<path fill="none" stroke="red" stroke-width="0.11" d="M120.87,-220.16C114.85,-212.37 105.25,-199.96 96.65,-188.84"/>
<polygon fill="red" stroke="red" stroke-width="0.11" points="99.23,-186.45 90.34,-180.68 93.69,-190.73 99.23,-186.45"/>
</g>
<!-- &#45;8 -->
<g id="node8" class="node">
<title>&#45;8</title>
<polygon fill="lightgray" stroke="black" points="578.89,-172.07 554.88,-172.07 554.88,-155.07 578.89,-155.07 578.89,-172.07"/>
<text text-anchor="middle" x="566.88" y="-160.87" font-family="Times,serif" font-size="9.00">&#45;8</text>
</g>
<!-- &#45;8&#45;&gt;1 -->
<g id="edge21" class="edge">
<title>&#45;8&#45;&gt;1</title>
<path fill="none" stroke="red" stroke-width="0.27" d="M559.82,-155.03C548.88,-143.37 527.57,-120.64 512.57,-104.64"/>
<polygon fill="red" stroke="red" stroke-width="0.27" points="514.78,-101.88 505.38,-96.98 509.67,-106.67 514.78,-101.88"/>
</g>
<!-- &#45;8&#45;&gt;2 -->
<g id="edge22" class="edge">
<title>&#45;8&#45;&gt;2</title>
<path fill="none" stroke="red" stroke-width="0.4" d="M565.6,-154.93C562.02,-136.15 550.04,-87.63 518.88,-64.99 467.68,-27.79 269.4,-18.32 199.47,-16.12"/>
<polygon fill="red" stroke="red" stroke-width="0.4" points="199.49,-12.62 189.39,-15.82 199.28,-19.61 199.49,-12.62"/>
</g>
<!-- &#45;8&#45;&gt;3 -->
<g id="edge23" class="edge">
<title>&#45;8&#45;&gt;3</title>
<path fill="none" stroke="red" stroke-width="0.14" d="M555.03,-158.06C522.8,-145.8 433.12,-111.67 390.69,-95.53"/>
<polygon fill="red" stroke="red" stroke-width="0.14" points="391.81,-92.21 381.22,-91.92 389.32,-98.75 391.81,-92.21"/>
</g>
<!-- 304 -->
<g id="node13" class="node">
<title>304</title>
<ellipse fill="white" stroke="black" cx="175.88" cy="-163.57" rx="20.72" ry="20.72"/>
<text text-anchor="middle" x="175.88" y="-160.87" font-family="Times,serif" font-size="9.00">304</text>
</g>
<!-- 304&#45;&gt;0 -->
<g id="edge29" class="edge">
<title>304&#45;&gt;0</title>
<path fill="none" stroke="red" stroke-width="0.41" d="M176.41,-142.68C176.67,-132.79 176.99,-120.78 177.26,-110.43"/>
<polygon fill="red" stroke="red" stroke-width="0.41" points="180.76,-110.5 177.52,-100.41 173.76,-110.31 180.76,-110.5"/>
</g>
<!-- 218&#45;&gt;0 -->
<g id="edge27" class="edge">
<title>218&#45;&gt;0</title>
<path fill="none" stroke="green" stroke-width="0.51" d="M94.4,-150.07C112.02,-136.72 139.92,-115.6 158.55,-101.49"/>
<polygon fill="green" stroke="green" stroke-width="0.51" points="160.77,-104.2 166.63,-95.37 156.54,-98.62 160.77,-104.2"/>
</g>
<!-- 218&#45;&gt;155 -->
<g id="edge30" class="edge">
<title>218&#45;&gt;155</title>
<path fill="none" stroke="red" stroke-width="0.46" d="M83.69,-143.46C86.25,-135.03 89.31,-124.94 92.14,-115.63"/>
<polygon fill="red" stroke="red" stroke-width="0.46" points="95.52,-116.54 95.08,-105.95 88.83,-114.5 95.52,-116.54"/>
</g>
<!-- 155&#45;&gt;2 -->
<g id="edge25" class="edge">
<title>155&#45;&gt;2</title>
<path fill="none" stroke="red" stroke-width="0.76" stroke-dasharray="1,5" d="M115.86,-70.82C127.78,-59.65 144.49,-43.98 157.09,-32.18"/>
<polygon fill="red" stroke="red" stroke-width="0.76" points="159.78,-34.45 164.68,-25.06 154.99,-29.34 159.78,-34.45"/>
</g>
<!-- 351&#45;&gt;3 -->
<g id="edge32" class="edge">
<title>351&#45;&gt;3</title>
<path fill="none" stroke="red" stroke-width="0.49" d="M422.45,-147.61C411.42,-135.33 395.77,-117.91 384.06,-104.86"/>
<polygon fill="red" stroke="red" stroke-width="0.49" points="386.64,-102.5 377.35,-97.39 381.43,-107.17 386.64,-102.5"/>
</g>
</g>
</svg>
